{"title":"Les Miserables 2012 DVDSCR XViD TiCKLE TiME","uid":8007356,"size":1513066835,"categoryP":"video","categoryS":"movies","magnet":"?xt=urn:btih:1b044b3b7973f0a285d2c89b82b1f11ef6b6585f&amp;dn=Les+Miserables+2012+DVDSCR+XViD+TiCKLE+TiME&amp;tr=udp%3A%2F%2Ftracker.openbittorrent.com%3A80&amp;tr=udp%3A%2F%2Fopen.demonii.com%3A1337&amp;tr=udp%3A%2F%2Ftracker.coppersurfer.tk%3A6969&amp;tr=udp%3A%2F%2Fexodus.desync.com%3A6969","seeders":12,"leechers":0,"uploader":"juggs99","files":3,"time":1357920928,"description":" &lt;a href=&quot;http://www.shotpix.com/images/91623465813871590546.jpg&quot; rel=&quot;nofollow&quot; target=&quot;_NEW&quot;&gt;http://www.shotpix.com/images/91623465813871590546.jpg&lt;/a&gt;\n\n\nLes Miserables 2012 DVDSCR XViD TiCKLE TiME\n\n\n\n\nFormat                                   : AVI\nFormat/Info                              : Audio Video Interleave\nFile size                                : 1.40 GiB\nDuration                                 : 2h 37mn\nOverall bit rate                         : 1 269 Kbps\nWriting application                      : VirtualDubMod 1.5.10.2 (build 2540/release)\nWriting library                          : VirtualDubMod build 2540/release\n\nVideo\nID                                       : 0\nFormat                                   : MPEG-4 Visual\nFormat profile                           : Advanced Simple@L5\nFormat settings, BVOP                    : 2\nFormat settings, QPel                    : No\nFormat settings, GMC                     : No warppoints\nFormat settings, Matrix                  : Default (H.263)\nMuxing mode                              : Packed bitstream\nCodec ID                                 : XVID\nCodec ID/Hint                            : XviD\nDuration                                 : 2h 37mn\nBit rate                                 : 1 065 Kbps\nWidth                                    : 678 pixels\nHeight                                   : 358 pixels\nDisplay aspect ratio                     : 1.894\nFrame rate                               : 29.970 fps\nColor space                              : YUV\nChroma subsampling                       : 4:2:0\nBit depth                                : 8 bits\nScan type                                : Progressive\nCompression mode                         : Lossy\nBits/(Pixel*Frame)                       : 0.146\nStream size                              : 1.17 GiB (84%)\nWriting library                          : XviD 64\n\nAudio\nID                                       : 1\nFormat                                   : AC-3\nFormat/Info                              : Audio Coding 3\nMode extension                           : CM (complete main)\nFormat settings, Endianness              : Big\nCodec ID                                 : 2000\nDuration                                 : 2h 37mn\nBit rate mode                            : Constant\nBit rate                                 : 192 Kbps\nChannel(s)                               : 2 channels\nChannel positions                        : Front: L R\nSampling rate                            : 48.0 KHz\nBit depth                                : 16 bits\nCompression mode                         : Lossy\nStream size                              : 217 MiB (15%)\nAlignment                                : Split accross interleaves\nInterleave, duration                     : 33 ms (1.00 video frame)\nInterleave, preload duration             : 500 ms\n\n\n\n\n\n\n\nSources Les Miserables 2012 DVDSCR EDAW2013/ Thx\n\n &lt;a href=&quot;\nhttp://www.shotpix.com/images/98623041123956551224.png&quot; rel=&quot;nofollow&quot; target=&quot;_NEW&quot;&gt;\nhttp://www.shotpix.com/images/98623041123956551224.png&lt;/a&gt; &lt;a href=&quot;\nhttp://www.shotpix.com/images/70569096570453377928.png&quot; rel=&quot;nofollow&quot; target=&quot;_NEW&quot;&gt;\nhttp://www.shotpix.com/images/70569096570453377928.png&lt;/a&gt; &lt;a href=&quot;\nhttp://www.shotpix.com/images/21869977897019943476.png&quot; rel=&quot;nofollow&quot; target=&quot;_NEW&quot;&gt;\nhttp://www.shotpix.com/images/21869977897019943476.png&lt;/a&gt;\n","torrent":{"xt":"urn:btih:1b044b3b7973f0a285d2c89b82b1f11ef6b6585f","amp;dn":"Les+Miserables+2012+DVDSCR+XViD+TiCKLE+TiME","amp;tr":["udp%3A%2F%2Ftracker.openbittorrent.com%3A80","udp%3A%2F%2Fopen.demonii.com%3A1337","udp%3A%2F%2Ftracker.coppersurfer.tk%3A6969","udp%3A%2F%2Fexodus.desync.com%3A6969"],"infoHash":"1b044b3b7973f0a285d2c89b82b1f11ef6b6585f","infoHashBuffer":{"type":"Buffer","data":[27,4,75,59,121,115,240,162,133,210,200,155,130,177,241,30,246,182,88,95]},"announce":[],"urlList":[]}}